<svg width="67" height="19" viewBox="0 0 67 19" fill="none" xmlns="http://www.w3.org/2000/svg">
<path d="M18.7991 7.41211C22.1269 7.41231 24.5706 9.93431 24.5706 12.9502C24.5705 15.966 22.1268 18.5398 18.7991 18.54C15.4971 18.54 13.0531 15.9661 13.053 12.9502C13.053 9.9342 15.4971 7.41211 18.7991 7.41211ZM31.7297 7.41211C35.0577 7.41211 37.5022 9.9342 37.5022 12.9502C37.5021 15.9661 35.0577 18.54 31.7297 18.54C28.4279 18.54 25.9837 15.9661 25.9836 12.9502C25.9836 9.93423 28.4278 7.41217 31.7297 7.41211ZM50.2249 18.2021H47.9895L47.885 17.0059C47.131 17.9679 45.7529 18.5137 44.3489 18.5137C41.125 18.5136 38.9154 16.226 38.9153 12.9502C38.9153 9.8302 41.1515 7.41211 44.3235 7.41211C45.6752 7.4122 47.0271 7.8019 47.885 8.89355V3.45996H46.0647V1.45801H50.2249V18.2021ZM62.1252 4.13574V7.69824H65.0637V9.7002H62.1252V14.4844C62.1253 15.862 62.5674 16.3818 63.5032 16.3818C63.9972 16.3818 64.5691 16.2256 64.8811 16.0176C65.0631 16.6675 65.1939 17.3696 65.3499 18.0195C64.8039 18.3315 63.9452 18.5137 63.0872 18.5137C60.8254 18.5136 59.7855 17.37 59.7854 14.9004V9.7002H57.6018V7.69824H59.7854V4.13574H62.1252ZM13.0559 7.36035H10.9495V5.61816H6.16528V10.1162H11.2874V12.0664H6.16528V18.2021H3.79907V5.61816H2.2395V3.61621H13.0559V7.36035ZM55.9797 18.2021H53.6399V9.7002H51.8459V7.69824H55.9797V18.2021ZM44.6086 9.49219C42.6329 9.49236 41.2552 10.8441 41.2551 12.9238C41.2551 15.0297 42.6848 16.4334 44.6086 16.4336C46.8966 16.4336 47.9894 14.6921 47.9895 12.9502C47.9895 11.1042 46.8966 9.49219 44.6086 9.49219ZM18.7991 9.54395C16.9791 9.54395 15.3928 10.7662 15.3928 12.9502C15.3929 15.0301 16.8491 16.3818 18.7991 16.3818C20.6448 16.3816 22.2043 15.0299 22.2043 12.9502C22.2043 10.7664 20.6189 9.54412 18.7991 9.54395ZM31.7297 9.54395C29.9098 9.544 28.3235 10.7662 28.3235 12.9502C28.3236 15.03 29.7799 16.3818 31.7297 16.3818C33.5757 16.3818 35.1359 15.0301 35.136 12.9502C35.136 10.7662 33.5497 9.54395 31.7297 9.54395ZM54.6018 2.62793C55.5118 2.62793 56.1624 3.40811 56.1624 4.16211C56.1623 5.04606 55.5378 5.72168 54.6018 5.72168C53.718 5.72146 53.0687 4.99394 53.0686 4.16211C53.0686 3.22624 53.666 2.6281 54.6018 2.62793Z" fill="white"/>
</svg>
