<svg width="31" height="25" viewBox="0 0 31 25" fill="none" xmlns="http://www.w3.org/2000/svg">
<path opacity="0.0572699" d="M23.5635 10.9775C24.2423 10.9834 24.8566 11.3057 25.248 11.8604L30.7852 19.7061V20.6104L30.7939 21.4277C30.8012 22.1167 30.5384 22.7661 30.0537 23.2559C29.5691 23.7458 28.9225 24.0158 28.2334 24.0156H2.56055C1.14892 24.0155 0.000232186 22.8667 0 21.4551V20.7793L5.65527 17.0566C6.35697 16.595 7.26182 16.5984 7.95996 17.0654L11.6982 19.5674C13.3913 20.7002 15.6603 20.3008 16.8643 18.6572L21.8643 11.8301C22.2616 11.2876 22.8736 10.9775 23.5449 10.9775C23.5511 10.9775 23.5574 10.9775 23.5635 10.9775ZM28.2246 0C29.6363 4.13832e-06 30.7849 1.14793 30.7852 2.55957V16.7451L26.6426 10.876C25.9306 9.86715 24.8139 9.28243 23.5791 9.27148C23.5674 9.27131 23.5556 9.27051 23.5439 9.27051C22.3228 9.27051 21.2101 9.83452 20.4873 10.8213L15.4873 17.6484C14.8257 18.5517 13.5783 18.772 12.6475 18.1494L8.90918 15.6475C7.639 14.7975 5.99338 14.7914 4.7168 15.6318L0 18.7363V2.55957C0.000258039 1.14799 1.14893 0.000102546 2.56055 0H28.2246ZM11.8584 3.19238C9.36089 3.19238 7.3291 5.22515 7.3291 7.72266C7.32931 10.2199 9.36102 12.252 11.8584 12.252C14.3556 12.2517 16.3875 10.2198 16.3877 7.72266C16.3877 5.22528 14.3558 3.19261 11.8584 3.19238ZM11.8584 4.89941C13.4145 4.89964 14.6807 6.16652 14.6807 7.72266C14.6805 9.27865 13.4144 10.5447 11.8584 10.5449C10.3023 10.5449 9.03537 9.27875 9.03516 7.72266C9.03516 6.16639 10.3021 4.89941 11.8584 4.89941Z" fill="black"/>
</svg>
