<svg width="96" height="52" viewBox="0 0 96 52" fill="none" xmlns="http://www.w3.org/2000/svg">
<path fill-rule="evenodd" clip-rule="evenodd" d="M21.2113 0H7.78868C3.4869 0 0 3.10971 0 6.94585V24.0481C0 27.8842 3.4869 30.9942 7.78868 30.9942H12.1118C12.1118 30.9942 13.1651 31.1483 13.2206 29.8644C13.1996 27.7503 13.1449 25.7648 13.0038 25.3414C12.6587 23.1781 11.2776 24.3045 11.2776 19.8108C11.2776 15.3172 12.3133 6.91309 13.9245 3.22622C14.9702 0.832977 15.881 1.38279 15.7657 3.3416C15.7657 3.3416 15.881 13.2504 15.9959 19.4724C16.0736 23.6726 16.0335 27.5353 16.0599 29.9097C16.0503 31.1025 17.1036 30.9942 17.1036 30.9942H21.2113C25.5128 30.9942 29 27.8842 29 24.0481V6.94585C29 3.10971 25.5128 0 21.2113 0Z" fill="#56CA5A"/>
<path fill-rule="evenodd" clip-rule="evenodd" d="M55.2112 0H41.7888C37.4871 0 34 3.41036 34 7.61739V26.3734C34 30.5795 37.4871 33.9902 41.7888 33.9902H45.2725C45.2725 33.9902 46.3685 34.1136 46.3685 32.8995C46.599 29.9428 46.8536 26.4725 46.8536 25.5608C46.8536 23.895 45.7767 23.6798 44.4551 23.1961C43.1335 22.7125 41.3222 18.6276 42.3991 12.7154C43.4709 6.83134 45.9969 3.39911 48.4819 3.36662V3.3635C48.4879 3.3635 48.4939 3.36506 48.4999 3.36506C48.5055 3.36506 48.5115 3.3635 48.5175 3.3635V3.36662C51.0025 3.39911 53.5288 6.83134 54.6006 12.7154C55.6775 18.6276 53.8662 22.7125 52.5446 23.1961C51.2233 23.6798 50.1461 23.895 50.1461 25.5608C50.1461 26.4572 50.3919 30.1268 50.6193 33.0495C50.7049 34.1639 51.6256 33.9902 51.6256 33.9902H55.2112C59.5129 33.9902 63 30.5795 63 26.3734V7.61739C63 3.41036 59.5129 0 55.2112 0Z" fill="#4CAF50"/>
<path fill-rule="evenodd" clip-rule="evenodd" d="M88.2116 0H74.789C70.4872 0 67 3.10966 67 6.94575V24.048C67 27.8835 70.4872 30.9935 74.789 30.9935H78.1544C78.1544 30.9935 79.2527 31.0385 79.3241 30.0372C79.5574 27.3147 79.8197 24.0631 79.8197 23.2191C79.8197 21.7004 78.7428 21.5036 77.4209 21.0631C76.0992 20.6219 74.6991 18.2945 75.6397 11.5063C75.978 9.06462 76.3513 6.30023 77.288 4.86988C77.4846 4.56934 77.8283 4.32094 78.2642 4.12181V14.2402C78.2642 14.8558 78.7456 15.3546 79.3389 15.3546C79.9321 15.3546 80.4135 14.8558 80.4135 14.2402L80.6884 3.59366C81.3001 3.53013 81.3903 3.51988 82.0069 3.56175L82.2817 14.2402C82.2817 14.8558 82.7629 15.3546 83.3564 15.3546C83.9496 15.3546 84.4308 14.8558 84.4308 14.2402V3.98536C84.9515 4.18306 85.3601 4.44543 85.5806 4.77388C86.5454 6.2122 86.9013 9.01648 87.292 11.5063C88.3991 18.5634 86.8328 20.6219 85.5109 21.0631C84.1892 21.5036 83.112 21.7004 83.112 23.2191C83.112 24.0483 83.4167 27.3713 83.6466 30.0631C83.8464 31.1382 84.6951 30.9935 84.6951 30.9935H88.2116C92.5128 30.9935 96 27.8835 96 24.048V6.94575C96 3.10966 92.5128 0 88.2116 0Z" fill="#56CA5A"/>
<path d="M35.7991 40.4121C39.1269 40.4123 41.5706 42.9343 41.5706 45.9502C41.5705 48.966 39.1268 51.5398 35.7991 51.54C32.4971 51.54 30.0531 48.9661 30.053 45.9502C30.053 42.9342 32.4971 40.4121 35.7991 40.4121ZM48.7297 40.4121C52.0577 40.4121 54.5022 42.9342 54.5022 45.9502C54.5021 48.9661 52.0577 51.54 48.7297 51.54C45.4279 51.54 42.9837 48.9661 42.9836 45.9502C42.9836 42.9342 45.4278 40.4122 48.7297 40.4121ZM67.2249 51.2021H64.9895L64.885 50.0059C64.131 50.9679 62.7529 51.5137 61.3489 51.5137C58.125 51.5136 55.9154 49.226 55.9153 45.9502C55.9153 42.8302 58.1515 40.4121 61.3235 40.4121C62.6752 40.4122 64.0271 40.8019 64.885 41.8936V36.46H63.0647V34.458H67.2249V51.2021ZM79.1252 37.1357V40.6982H82.0637V42.7002H79.1252V47.4844C79.1253 48.862 79.5674 49.3818 80.5032 49.3818C80.9972 49.3818 81.5691 49.2256 81.8811 49.0176C82.0631 49.6675 82.1939 50.3696 82.3499 51.0195C81.8039 51.3315 80.9452 51.5137 80.0872 51.5137C77.8254 51.5136 76.7855 50.37 76.7854 47.9004V42.7002H74.6018V40.6982H76.7854V37.1357H79.1252ZM30.0559 40.3604H27.9495V38.6182H23.1653V43.1162H28.2874V45.0664H23.1653V51.2021H20.7991V38.6182H19.2395V36.6162H30.0559V40.3604ZM72.9797 51.2021H70.6399V42.7002H68.8459V40.6982H72.9797V51.2021ZM61.6086 42.4922C59.6329 42.4924 58.2552 43.8441 58.2551 45.9238C58.2551 48.0297 59.6848 49.4334 61.6086 49.4336C63.8966 49.4336 64.9894 47.6921 64.9895 45.9502C64.9895 44.1042 63.8966 42.4922 61.6086 42.4922ZM35.7991 42.5439C33.9791 42.5439 32.3928 43.7662 32.3928 45.9502C32.3929 48.0301 33.8491 49.3818 35.7991 49.3818C37.6448 49.3816 39.2043 48.0299 39.2043 45.9502C39.2043 43.7664 37.6189 42.5441 35.7991 42.5439ZM48.7297 42.5439C46.9098 42.544 45.3235 43.7662 45.3235 45.9502C45.3236 48.03 46.7799 49.3818 48.7297 49.3818C50.5757 49.3818 52.1359 48.0301 52.136 45.9502C52.136 43.7662 50.5497 42.5439 48.7297 42.5439ZM71.6018 35.6279C72.5118 35.6279 73.1624 36.4081 73.1624 37.1621C73.1623 38.0461 72.5378 38.7217 71.6018 38.7217C70.718 38.7215 70.0687 37.9939 70.0686 37.1621C70.0686 36.2262 70.666 35.6281 71.6018 35.6279Z" fill="#2C9631"/>
</svg>
